<svg width="199" height="37" viewBox="0 0 199 37" fill="none" xmlns="http://www.w3.org/2000/svg">
<path d="M11.104 22.288C14.176 22.288 16.552 21.088 18.28 19.624V12.328H10.984V15.52H14.704V17.92C13.768 18.592 12.568 18.928 11.224 18.928C8.248 18.928 6.136 16.672 6.136 13.6V13.552C6.136 10.696 8.272 8.32 10.96 8.32C12.904 8.32 14.056 8.944 15.352 10.024L17.68 7.216C15.928 5.728 14.104 4.912 11.08 4.912C5.992 4.912 2.272 8.824 2.272 13.6V13.648C2.272 18.616 5.872 22.288 11.104 22.288ZM27.7643 22.288C31.7723 22.288 34.7483 19.288 34.7483 15.592V15.544C34.7483 11.848 31.7963 8.896 27.8123 8.896C23.8043 8.896 20.8283 11.896 20.8283 15.592V15.64C20.8283 19.336 23.7803 22.288 27.7643 22.288ZM27.8123 19.144C25.7963 19.144 24.4283 17.488 24.4283 15.592V15.544C24.4283 13.648 25.6763 12.04 27.7643 12.04C29.7803 12.04 31.1483 13.696 31.1483 15.592V15.64C31.1483 17.536 29.9003 19.144 27.8123 19.144ZM43.7018 22.288C47.7098 22.288 50.6858 19.288 50.6858 15.592V15.544C50.6858 11.848 47.7338 8.896 43.7498 8.896C39.7418 8.896 36.7658 11.896 36.7658 15.592V15.64C36.7658 19.336 39.7178 22.288 43.7018 22.288ZM43.7498 19.144C41.7338 19.144 40.3658 17.488 40.3658 15.592V15.544C40.3658 13.648 41.6138 12.04 43.7018 12.04C45.7178 12.04 47.0858 13.696 47.0858 15.592V15.64C47.0858 17.536 45.8378 19.144 43.7498 19.144ZM58.6073 22.24C60.5033 22.24 61.7273 21.352 62.6153 20.152V22H66.2633V4.48H62.6153V10.816C61.7513 9.784 60.5513 8.896 58.6073 8.896C55.5593 8.896 52.7513 11.248 52.7513 15.544V15.592C52.7513 19.888 55.6073 22.24 58.6073 22.24ZM59.5433 19.144C57.8393 19.144 56.3993 17.728 56.3993 15.592V15.544C56.3993 13.384 57.8393 11.992 59.5433 11.992C61.2473 11.992 62.6633 13.408 62.6633 15.544V15.592C62.6633 17.728 61.2473 19.144 59.5433 19.144ZM75.6619 22H79.4299L80.9659 18.232H88.0699L89.6059 22H93.4699L86.2699 5.08H82.8619L75.6619 22ZM82.2859 14.968L84.5179 9.52L86.7499 14.968H82.2859ZM95.8341 22H99.4821V12.256H102.386V9.28H99.4341V8.776C99.4341 7.816 99.9141 7.384 100.754 7.384C101.378 7.384 101.882 7.504 102.41 7.696V4.672C101.738 4.456 100.97 4.312 99.8181 4.312C98.5221 4.312 97.5381 4.648 96.8661 5.32C96.1941 5.992 95.8341 7.024 95.8341 8.44V9.256H94.3221V12.256H95.8341V22ZM108.718 22.216C109.942 22.216 110.83 21.928 111.598 21.472V18.544C111.07 18.832 110.47 19 109.798 19C108.982 19 108.622 18.592 108.622 17.752V12.256H111.646V9.136H108.622V5.848H104.974V9.136H103.438V12.256H104.974V18.352C104.974 21.328 106.486 22.216 108.718 22.216ZM120.08 22.288C122.408 22.288 124.136 21.376 125.336 19.888L123.248 18.04C122.24 18.976 121.352 19.36 120.128 19.36C118.496 19.36 117.344 18.496 116.984 16.84H125.936C125.96 16.504 125.984 16.168 125.984 15.88C125.984 12.232 124.016 8.896 119.72 8.896C115.976 8.896 113.36 11.92 113.36 15.592V15.64C113.36 19.576 116.216 22.288 120.08 22.288ZM116.936 14.56C117.224 12.904 118.208 11.824 119.72 11.824C121.256 11.824 122.216 12.928 122.432 14.56H116.936ZM128.702 22H132.35V17.248C132.35 14.176 133.838 12.712 136.262 12.712H136.454V8.896C134.294 8.8 133.094 9.952 132.35 11.728V9.136H128.702V22ZM138.734 22H142.382V14.824C142.382 13.096 143.27 12.208 144.662 12.208C146.054 12.208 146.87 13.096 146.87 14.824V22H150.518V13.672C150.518 10.72 148.91 8.896 146.15 8.896C144.302 8.896 143.222 9.88 142.382 10.96V9.136H138.734V22ZM159.999 22.288C164.007 22.288 166.983 19.288 166.983 15.592V15.544C166.983 11.848 164.031 8.896 160.047 8.896C156.039 8.896 153.063 11.896 153.063 15.592V15.64C153.063 19.336 156.015 22.288 159.999 22.288ZM160.047 19.144C158.031 19.144 156.663 17.488 156.663 15.592V15.544C156.663 13.648 157.911 12.04 159.999 12.04C162.015 12.04 163.383 13.696 163.383 15.592V15.64C163.383 17.536 162.135 19.144 160.047 19.144ZM175.936 22.288C179.944 22.288 182.92 19.288 182.92 15.592V15.544C182.92 11.848 179.968 8.896 175.984 8.896C171.976 8.896 169 11.896 169 15.592V15.64C169 19.336 171.952 22.288 175.936 22.288ZM175.984 19.144C173.968 19.144 172.6 17.488 172.6 15.592V15.544C172.6 13.648 173.848 12.04 175.936 12.04C177.952 12.04 179.32 13.696 179.32 15.592V15.64C179.32 17.536 178.072 19.144 175.984 19.144ZM185.562 22H189.21V14.824C189.21 13.096 190.098 12.208 191.49 12.208C192.882 12.208 193.698 13.096 193.698 14.824V22H197.346V13.672C197.346 10.72 195.738 8.896 192.978 8.896C191.13 8.896 190.05 9.88 189.21 10.96V9.136H185.562V22Z" fill="white"/>
<path d="M1 33C1 33 25.411 39.75 67 33" stroke="#CDE7BE" stroke-width="2" stroke-linecap="round"/>
</svg>
