<svg width="24" height="24" viewBox="0 0 24 24" fill="none" xmlns="http://www.w3.org/2000/svg">
<path opacity="0.7" d="M15.7138 19.8751C14.1636 19.8754 12.6482 19.4159 11.3592 18.5549C10.0702 17.6939 9.06547 16.47 8.47205 15.0379C7.87863 13.6059 7.72318 12.03 8.02537 10.5096C8.32756 8.98926 9.07381 7.59262 10.1698 6.49635C11.2657 5.40009 12.6621 4.65342 14.1824 4.35078C15.7027 4.04814 17.2786 4.20311 18.7108 4.79611C20.1431 5.38911 21.3673 6.39349 22.2287 7.68224C23.0901 8.971 23.5499 10.4862 23.5502 12.0364V12.0375C23.548 14.1153 22.7217 16.1074 21.2526 17.5768C19.7835 19.0461 17.7915 19.8727 15.7138 19.8751Z" fill="#CDE7BE"/>
<path opacity="0.8" d="M8.58759 19.8751C7.03746 19.8751 5.52215 19.4155 4.23326 18.5543C2.94438 17.6931 1.93981 16.469 1.3466 15.0369C0.753396 13.6047 0.598186 12.0288 0.900601 10.5085C1.20302 8.98816 1.94947 7.59164 3.04558 6.49553C4.14169 5.39942 5.53821 4.65297 7.05855 4.35055C8.5789 4.04814 10.1548 4.20335 11.5869 4.79656C13.019 5.38976 14.2431 6.39433 15.1043 7.68321C15.9655 8.9721 16.4252 10.4874 16.4252 12.0375C16.423 14.1155 15.5966 16.1078 14.1272 17.5772C12.6579 19.0465 10.6656 19.873 8.58759 19.8751Z" fill="#CDE7BE"/>
</svg>
