<svg width="18" height="11" viewBox="0 0 18 11" fill="none" xmlns="http://www.w3.org/2000/svg">
<path d="M2 6.5H1C0.447715 6.5 0 6.94772 0 7.5V9.5C0 10.0523 0.447715 10.5 1 10.5H2C2.55228 10.5 3 10.0523 3 9.5V7.5C3 6.94772 2.55228 6.5 2 6.5Z" fill="white"/>
<path d="M7 4.5H6C5.44772 4.5 5 4.94772 5 5.5V9.5C5 10.0523 5.44772 10.5 6 10.5H7C7.55228 10.5 8 10.0523 8 9.5V5.5C8 4.94772 7.55228 4.5 7 4.5Z" fill="white"/>
<path d="M12 2.5H11C10.4477 2.5 10 2.94772 10 3.5V9.5C10 10.0523 10.4477 10.5 11 10.5H12C12.5523 10.5 13 10.0523 13 9.5V3.5C13 2.94772 12.5523 2.5 12 2.5Z" fill="white"/>
<path d="M17 0.5H16C15.4477 0.5 15 0.947715 15 1.5V9.5C15 10.0523 15.4477 10.5 16 10.5H17C17.5523 10.5 18 10.0523 18 9.5V1.5C18 0.947715 17.5523 0.5 17 0.5Z" fill="white"/>
</svg>
