<svg width="24" height="24" viewBox="0 0 24 24" fill="none" xmlns="http://www.w3.org/2000/svg">
<g clip-path="url(#clip0_146_1832)">
<path d="M0.811563 4.46411C0.281475 4.46411 -0.148438 4.8939 -0.148438 5.42411V18.5761C-0.148438 19.1063 0.281691 19.5361 0.811563 19.5361H22.8916C23.4216 19.5361 23.8516 19.1063 23.8516 18.5761V5.42411C23.8516 4.89393 23.4214 4.46411 22.8916 4.46411H0.811563ZM14.1856 8.95586C14.7697 8.95586 15.2378 9.08488 15.5363 9.20486L15.3323 10.4881L15.1973 10.4199C14.9192 10.2999 14.562 10.1844 14.0693 10.1926C13.4795 10.1926 13.2068 10.4557 13.2068 10.7019C13.2034 10.9792 13.5254 11.1622 14.0521 11.4361C14.9213 11.8588 15.323 12.3712 15.3173 13.0449C15.3056 14.2741 14.2776 15.0684 12.6938 15.0684C12.0181 15.0609 11.3672 14.9179 11.0153 14.7526L11.2268 13.4266L11.4211 13.5211C11.9159 13.7422 12.2363 13.8316 12.8393 13.8316C13.2723 13.8316 13.7371 13.6503 13.7408 13.2534C13.7436 12.9942 13.5465 12.8094 12.9601 12.5191C12.3886 12.2358 11.6309 11.7613 11.6393 10.9104C11.6483 9.7593 12.6968 8.95586 14.1856 8.95586ZM1.97405 9.14411H4.40631C4.73383 9.1565 4.99827 9.26195 5.08956 9.61737L5.61382 12.3234C5.61389 12.3236 5.61372 12.3246 5.61382 12.3249L5.77131 13.1356L7.24805 9.14411H8.84556L6.47105 14.9866L4.87505 14.9881L3.60456 10.2736C4.36051 10.6741 5.0041 11.1375 5.37682 11.7751C5.28072 11.5733 5.1541 11.3456 4.99207 11.1211C4.80339 10.8597 4.39589 10.5222 4.22556 10.3786C3.63204 9.87827 2.826 9.47418 1.95531 9.26037L1.97405 9.14411ZM9.48082 9.15086H11.0431L10.0658 14.9844H8.50356L9.48082 9.15086ZM18.3046 9.15086H19.4881L20.7271 14.9844H19.3066C19.3066 14.9844 19.1656 14.3142 19.1198 14.1099C18.8965 14.1099 17.335 14.1076 17.1593 14.1076C17.0999 14.2655 16.8368 14.9843 16.8368 14.9843H15.2296L17.5028 9.63537C17.6638 9.25526 17.9381 9.15086 18.3046 9.15086ZM18.4208 10.7199C18.3439 10.9368 18.2101 11.2872 18.2191 11.2719C18.2191 11.2719 17.7382 12.5544 17.6123 12.8874L18.8761 12.8866C18.7587 12.3303 18.6412 11.7741 18.5236 11.2179L18.4208 10.7199V10.7199Z" fill="#313333"/>
</g>
<defs>
<clipPath id="clip0_146_1832">
<rect width="24" height="24" fill="white"/>
</clipPath>
</defs>
</svg>
