<svg width="24" height="13" viewBox="0 0 24 13" fill="none" xmlns="http://www.w3.org/2000/svg">
<g clip-path="url(#clip0_405_1253)">
<path opacity="0.4" d="M2.86476 1C2.21704 1.01599 1.60208 1.28812 1.15464 1.75673C0.70721 2.22535 0.463801 2.85223 0.477762 3.5V9.5C0.463798 10.1476 0.70707 10.7743 1.15429 11.2429C1.60151 11.7115 2.21622 11.9837 2.86376 12H18.1368C18.7845 11.984 19.3994 11.7119 19.8469 11.2433C20.2943 10.7747 20.5377 10.1478 20.5238 9.5V3.5C20.5377 2.85223 20.2943 2.22535 19.8469 1.75673C19.3994 1.28812 18.7845 1.01599 18.1368 1H2.86476ZM2.86476 0.5H18.1368C18.9143 0.518353 19.6527 0.844655 20.1897 1.40719C20.7268 1.96973 21.0185 2.72248 21.0008 3.5V9.5C21.0185 10.2775 20.7268 11.0303 20.1897 11.5928C19.6527 12.1553 18.9143 12.4816 18.1368 12.5H2.86476C2.08725 12.4816 1.34884 12.1553 0.811804 11.5928C0.274768 11.0303 -0.0169496 10.2775 0.00076185 9.5V3.5C-0.0169496 2.72248 0.274768 1.96973 0.811804 1.40719C1.34884 0.844655 2.08725 0.518353 2.86476 0.5V0.5Z" fill="white"/>
<rect x="2" y="2.5" width="17" height="8" rx="1" fill="white"/>
<path opacity="0.4" d="M22 4.5C22.5304 4.5 23.0391 4.71071 23.4142 5.08579C23.7893 5.46086 24 5.96957 24 6.5C24 7.03043 23.7893 7.53914 23.4142 7.91421C23.0391 8.28929 22.5304 8.5 22 8.5V4.5Z" fill="white"/>
</g>
<defs>
<clipPath id="clip0_405_1253">
<rect width="24" height="12" fill="white" transform="translate(0 0.5)"/>
</clipPath>
</defs>
</svg>
