<svg width="18" height="12" viewBox="0 0 18 12" fill="none" xmlns="http://www.w3.org/2000/svg">
<path d="M16.2263 7.92517L10.668 11.1335C10.33 11.3277 9.94693 11.4296 9.55713 11.4292C9.16734 11.4288 8.7845 11.3259 8.44695 11.131C8.10939 10.936 7.82898 10.6559 7.63377 10.3185C7.43856 9.98106 7.33542 9.5983 7.33467 9.2085L4.00133 11.1335C3.66334 11.3277 3.28026 11.4296 2.89047 11.4292C2.50067 11.4288 2.11783 11.3259 1.78028 11.131C1.44273 10.936 1.16231 10.6559 0.967102 10.3185C0.771896 9.98106 0.668753 9.5983 0.667999 9.2085V2.79184C0.665966 2.40273 0.767561 2.0201 0.962345 1.68326C1.15713 1.34641 1.43808 1.0675 1.77633 0.875171C2.11384 0.673333 2.49975 0.566774 2.893 0.566836C3.28222 0.568918 3.6642 0.672311 4.00133 0.866837L7.33467 2.79184C7.33288 2.40166 7.4345 2.01798 7.62919 1.67984C7.82387 1.34171 8.10467 1.06119 8.443 0.866837C8.78096 0.670732 9.16476 0.567449 9.5555 0.567449C9.94624 0.567449 10.33 0.670732 10.668 0.866837L16.2263 4.07517C16.5637 4.27071 16.8437 4.55147 17.0384 4.88932C17.2331 5.22717 17.3355 5.61025 17.3355 6.00017C17.3355 6.39009 17.2331 6.77317 17.0384 7.11102C16.8437 7.44887 16.5637 7.72963 16.2263 7.92517ZM7.33467 4.71684L3.168 2.31684C3.08386 2.26919 2.98879 2.24422 2.8921 2.24436C2.79541 2.2445 2.70041 2.26974 2.61641 2.31762C2.5324 2.3655 2.46227 2.43438 2.41289 2.51751C2.3635 2.60064 2.33654 2.69516 2.33467 2.79184V9.2085C2.33654 9.30518 2.3635 9.3997 2.41289 9.48283C2.46227 9.56596 2.5324 9.63484 2.61641 9.68272C2.70041 9.7306 2.79541 9.75584 2.8921 9.75598C2.98879 9.75612 3.08386 9.73115 3.168 9.6835L7.33467 7.2835V4.71684ZM15.393 5.55017L9.83467 2.3085C9.74926 2.26108 9.65319 2.23619 9.5555 2.23619C9.45781 2.23619 9.36173 2.26108 9.27633 2.3085C9.19168 2.35737 9.12158 2.4279 9.07325 2.51285C9.02491 2.59781 9.00009 2.6941 9.00133 2.79184V9.2085C9.00009 9.30624 9.02491 9.40253 9.07325 9.48748C9.12158 9.57244 9.19168 9.64297 9.27633 9.69184C9.36384 9.73808 9.46074 9.76373 9.55967 9.76684C9.6565 9.76768 9.75167 9.74172 9.83467 9.69184L15.393 6.4835C15.4778 6.43447 15.5482 6.364 15.5971 6.27917C15.6461 6.19433 15.6718 6.09811 15.6718 6.00017C15.6718 5.90223 15.6461 5.80601 15.5971 5.72117C15.5482 5.63634 15.4778 5.56587 15.393 5.51684V5.55017Z" fill="#2D3047"/>
</svg>
