<svg width="17" height="13" viewBox="0 0 17 13" fill="none" xmlns="http://www.w3.org/2000/svg">
<g clip-path="url(#clip0_405_1249)">
<path d="M8.49177 12.3093C8.54113 12.3127 8.59066 12.3056 8.63703 12.2883C8.68341 12.2711 8.72563 12.2443 8.76081 12.2095C8.83681 12.1405 10.5296 10.4384 10.9136 10.0994C10.9622 10.0254 10.992 9.94046 10.9998 9.85229C10.9874 9.75503 10.9397 9.66573 10.8658 9.60132C10.1779 9.08442 9.34074 8.80493 8.4803 8.80493C7.61985 8.80493 6.78268 9.08442 6.0948 9.60132C6.0398 9.67464 6.00519 9.76124 5.9947 9.85229C5.98828 9.89862 5.99424 9.94591 6.01179 9.98926C6.02934 10.0326 6.05796 10.0706 6.0948 10.0994C6.1858 10.1994 8.17875 12.1285 8.27375 12.2095C8.36875 12.2905 8.37077 12.3093 8.49177 12.3093Z" fill="white"/>
<path d="M3.5 6.9873C3.5075 7.07575 3.54613 7.15867 3.60901 7.22131L4.76404 8.52136C4.82512 8.5791 4.90594 8.61121 4.98999 8.61121C5.07404 8.61121 5.15498 8.5791 5.21606 8.52136C6.08677 7.63449 7.27323 7.12861 8.51599 7.11438C9.75694 7.13716 10.9404 7.64172 11.816 8.52136C11.8769 8.57766 11.9567 8.60889 12.0396 8.60889C12.1224 8.60889 12.2022 8.57766 12.2631 8.52136L13.425 7.22131C13.4764 7.15373 13.506 7.07212 13.51 6.9873C13.5149 6.94348 13.5098 6.89911 13.4951 6.85754C13.4804 6.81598 13.4564 6.7783 13.425 6.74731C12.7987 6.07304 12.04 5.53526 11.1964 5.16748C10.3528 4.7997 9.4424 4.60986 8.52209 4.60986C7.60179 4.60986 6.69128 4.7997 5.84766 5.16748C5.00404 5.53526 4.24537 6.07304 3.61902 6.74731C3.53702 6.86431 3.5 6.8543 3.5 6.9873Z" fill="white"/>
<path d="M0.596069 3.89343C0.533069 3.99343 0.496094 4.0174 0.496094 4.1394C0.504936 4.22814 0.539692 4.31225 0.596069 4.38135C0.596069 4.38135 1.56306 5.42545 1.81006 5.60645C1.87692 5.6577 1.95885 5.68542 2.04309 5.68542C2.12734 5.68542 2.20914 5.6577 2.276 5.60645C3.95132 3.99428 6.18596 3.09363 8.51099 3.09363C10.836 3.09363 13.0708 3.99428 14.7461 5.60645C14.7461 5.60645 15.008 5.79645 15.196 5.60645C15.384 5.41645 16.396 4.38135 16.396 4.38135C16.4528 4.3125 16.4877 4.22826 16.4961 4.1394C16.5006 4.09336 16.4939 4.04689 16.4764 4.00403C16.459 3.96117 16.4314 3.92324 16.396 3.89343C14.2789 1.84002 11.4455 0.69165 8.49609 0.69165C5.54672 0.69165 2.71321 1.84002 0.596069 3.89343Z" fill="white"/>
</g>
<defs>
<clipPath id="clip0_405_1249">
<rect width="16" height="11.619" fill="white" transform="translate(0.5 0.69043)"/>
</clipPath>
</defs>
</svg>
